<mxfile host="Electron" modified="2025-01-06T16:44:05.293Z" agent="Mozilla/5.0 (Windows NT 10.0; Win64; x64) AppleWebKit/537.36 (KHTML, like Gecko) draw.io/24.4.0 Chrome/120.0.6099.109 Electron/28.1.0 Safari/537.36" etag="02tuqwNDMnvRxOkm5z0u" version="24.4.0" type="device">
  <diagram name="Page-1" id="5f0bae14-7c28-e335-631c-24af17079c00">
    <mxGraphModel dx="2582" dy="911" grid="1" gridSize="10" guides="1" tooltips="1" connect="1" arrows="1" fold="1" page="1" pageScale="1" pageWidth="1100" pageHeight="850" background="none" math="0" shadow="0">
      <root>
        <mxCell id="0" />
        <mxCell id="1" parent="0" />
        <mxCell id="t9n_h0WGIXlENOtsr2T6-37" value="" style="rounded=0;whiteSpace=wrap;html=1;" parent="1" vertex="1">
          <mxGeometry x="-560" width="2300" height="850" as="geometry" />
        </mxCell>
        <mxCell id="t9n_h0WGIXlENOtsr2T6-8" value="Backend" style="swimlane;" parent="1" vertex="1">
          <mxGeometry x="450" y="280" width="200" height="150" as="geometry" />
        </mxCell>
        <mxCell id="t9n_h0WGIXlENOtsr2T6-18" value="ASP.NET SERVER" style="whiteSpace=wrap;html=1;" parent="t9n_h0WGIXlENOtsr2T6-8" vertex="1">
          <mxGeometry x="10" y="40" width="180" height="40" as="geometry" />
        </mxCell>
        <mxCell id="fttnhS-cjDVXLHsicbam-11" value="C#" style="whiteSpace=wrap;html=1;" vertex="1" parent="t9n_h0WGIXlENOtsr2T6-8">
          <mxGeometry x="10" y="90" width="180" height="40" as="geometry" />
        </mxCell>
        <mxCell id="t9n_h0WGIXlENOtsr2T6-14" value="Frontend" style="swimlane;" parent="1" vertex="1">
          <mxGeometry x="760" y="280" width="200" height="160" as="geometry" />
        </mxCell>
        <mxCell id="t9n_h0WGIXlENOtsr2T6-20" value="REACT WEBCLIENT" style="whiteSpace=wrap;html=1;" parent="t9n_h0WGIXlENOtsr2T6-14" vertex="1">
          <mxGeometry x="10" y="40" width="180" height="40" as="geometry" />
        </mxCell>
        <mxCell id="fttnhS-cjDVXLHsicbam-2" value="TypeScript" style="whiteSpace=wrap;html=1;" vertex="1" parent="t9n_h0WGIXlENOtsr2T6-14">
          <mxGeometry x="10" y="100" width="180" height="40" as="geometry" />
        </mxCell>
        <mxCell id="t9n_h0WGIXlENOtsr2T6-15" value="Kamerasystem" style="swimlane;" parent="1" vertex="1">
          <mxGeometry x="110" y="307.5" width="200" height="95" as="geometry" />
        </mxCell>
        <mxCell id="t9n_h0WGIXlENOtsr2T6-21" value="Unifi G3 FLEX" style="whiteSpace=wrap;html=1;" parent="t9n_h0WGIXlENOtsr2T6-15" vertex="1">
          <mxGeometry x="10" y="35" width="180" height="40" as="geometry" />
        </mxCell>
        <mxCell id="t9n_h0WGIXlENOtsr2T6-25" value="" style="endArrow=classic;html=1;rounded=0;exitX=1;exitY=0.5;exitDx=0;exitDy=0;entryX=0;entryY=0.5;entryDx=0;entryDy=0;" parent="1" source="t9n_h0WGIXlENOtsr2T6-15" target="t9n_h0WGIXlENOtsr2T6-8" edge="1">
          <mxGeometry width="50" height="50" relative="1" as="geometry">
            <mxPoint x="640" y="330" as="sourcePoint" />
            <mxPoint x="270" y="390" as="targetPoint" />
            <Array as="points" />
          </mxGeometry>
        </mxCell>
        <mxCell id="t9n_h0WGIXlENOtsr2T6-26" value="RTSP Stream" style="edgeLabel;html=1;align=center;verticalAlign=middle;resizable=0;points=[];" parent="t9n_h0WGIXlENOtsr2T6-25" vertex="1" connectable="0">
          <mxGeometry x="-0.1392" y="-2" relative="1" as="geometry">
            <mxPoint x="12" y="15" as="offset" />
          </mxGeometry>
        </mxCell>
        <mxCell id="t9n_h0WGIXlENOtsr2T6-30" value="" style="endArrow=classic;html=1;rounded=0;exitX=1;exitY=0.5;exitDx=0;exitDy=0;entryX=0;entryY=0.5;entryDx=0;entryDy=0;" parent="1" edge="1" target="t9n_h0WGIXlENOtsr2T6-14" source="t9n_h0WGIXlENOtsr2T6-8">
          <mxGeometry width="50" height="50" relative="1" as="geometry">
            <mxPoint x="690" y="360" as="sourcePoint" />
            <mxPoint x="790" y="360" as="targetPoint" />
          </mxGeometry>
        </mxCell>
        <mxCell id="t9n_h0WGIXlENOtsr2T6-31" value="Plattformen" style="swimlane;" parent="1" vertex="1">
          <mxGeometry x="860" y="500" width="200" height="160" as="geometry" />
        </mxCell>
        <mxCell id="t9n_h0WGIXlENOtsr2T6-32" value="AZURE" style="whiteSpace=wrap;html=1;" parent="t9n_h0WGIXlENOtsr2T6-31" vertex="1">
          <mxGeometry x="10" y="40" width="180" height="40" as="geometry" />
        </mxCell>
        <mxCell id="t9n_h0WGIXlENOtsr2T6-33" value="GITHUB" style="whiteSpace=wrap;html=1;" parent="t9n_h0WGIXlENOtsr2T6-31" vertex="1">
          <mxGeometry x="10" y="100" width="180" height="40" as="geometry" />
        </mxCell>
        <mxCell id="t9n_h0WGIXlENOtsr2T6-38" value="&lt;font style=&quot;font-size: 22px;&quot;&gt;&lt;b&gt;Visual Objekt Recognition&lt;/b&gt;&lt;/font&gt;" style="text;html=1;align=center;verticalAlign=middle;whiteSpace=wrap;rounded=0;" parent="1" vertex="1">
          <mxGeometry x="410" y="170" width="280" height="30" as="geometry" />
        </mxCell>
        <mxCell id="fttnhS-cjDVXLHsicbam-3" value="Datenbank" style="swimlane;" vertex="1" parent="1">
          <mxGeometry x="580" y="500" width="200" height="160" as="geometry" />
        </mxCell>
        <mxCell id="fttnhS-cjDVXLHsicbam-9" value="Host: AZURE" style="whiteSpace=wrap;html=1;" vertex="1" parent="fttnhS-cjDVXLHsicbam-3">
          <mxGeometry x="10" y="100" width="180" height="40" as="geometry" />
        </mxCell>
        <mxCell id="t9n_h0WGIXlENOtsr2T6-24" value="CosmosDB Datenbank" style="whiteSpace=wrap;html=1;" parent="fttnhS-cjDVXLHsicbam-3" vertex="1">
          <mxGeometry x="10" y="40" width="180" height="40" as="geometry" />
        </mxCell>
        <mxCell id="fttnhS-cjDVXLHsicbam-12" value="Objekterkennung" style="swimlane;" vertex="1" parent="1">
          <mxGeometry x="320" y="500" width="200" height="160" as="geometry" />
        </mxCell>
        <mxCell id="t9n_h0WGIXlENOtsr2T6-19" value="Ultralytics YOLOv5 OBJEKTERKENNUNG" style="whiteSpace=wrap;html=1;" parent="fttnhS-cjDVXLHsicbam-12" vertex="1">
          <mxGeometry x="10" y="40" width="180" height="40" as="geometry" />
        </mxCell>
        <mxCell id="fttnhS-cjDVXLHsicbam-16" value="" style="endArrow=classic;html=1;rounded=0;exitX=0.75;exitY=1;exitDx=0;exitDy=0;entryX=0.25;entryY=0;entryDx=0;entryDy=0;" edge="1" parent="1" source="t9n_h0WGIXlENOtsr2T6-8" target="fttnhS-cjDVXLHsicbam-3">
          <mxGeometry width="50" height="50" relative="1" as="geometry">
            <mxPoint x="660" y="365" as="sourcePoint" />
            <mxPoint x="770" y="370" as="targetPoint" />
          </mxGeometry>
        </mxCell>
        <mxCell id="fttnhS-cjDVXLHsicbam-17" value="" style="endArrow=classic;html=1;rounded=0;exitX=0.25;exitY=1;exitDx=0;exitDy=0;entryX=0.75;entryY=0;entryDx=0;entryDy=0;" edge="1" parent="1" source="t9n_h0WGIXlENOtsr2T6-8" target="fttnhS-cjDVXLHsicbam-12">
          <mxGeometry width="50" height="50" relative="1" as="geometry">
            <mxPoint x="610" y="440" as="sourcePoint" />
            <mxPoint x="640" y="510" as="targetPoint" />
          </mxGeometry>
        </mxCell>
      </root>
    </mxGraphModel>
  </diagram>
</mxfile>
